<?xml version="1.0" encoding="utf-8"?>
<!-- Generator: Adobe Illustrator 27.9.1, SVG Export Plug-In . SVG Version: 6.00 Build 0)  -->
<svg version="1.1" id="Layer_1" xmlns="http://www.w3.org/2000/svg"
	xmlns:xlink="http://www.w3.org/1999/xlink" x="0px" y="0px"
	viewBox="125 190 550 300" xml:space="preserve">
<style type="text/css">
	.st0{fill:#010202;}
	.st1{fill:#FDC400;}
	.st2{fill:#CC9000;}
	.st3{opacity:0.99;}
</style>
<g>
	<g>
		<path class="st0" d="M257.29,354.69c-20.26,0-32.45,16.15-32.45,34.49c0,20.53,13.42,34.49,37.51,34.49
			c8.22,0,15.19-1.23,22.72-3.69l-3.01-12.05c-6.16,1.65-13.28,2.6-19.58,2.6c-12.32,0-21.08-5.89-21.35-15.87h47.22v-5.07
			C288.36,368.93,276.58,354.69,257.29,354.69z M241.28,382.88c1.22-10.12,7.38-15.32,16.01-15.32c9.3,0,14.24,5.75,15.19,15.32
			H241.28z"/>
		<path class="st0" d="M334.87,354.69c-9.85,0-18.48,5.47-22.72,11.77v-10.54h-16.29v66.66h16.71v-37.09
			c0-9.3,8.07-15.88,15.6-15.88c8.35,0,12.04,4.92,12.04,13.14v39.83h16.7v-42.29C356.89,364.95,349.91,354.69,334.87,354.69z"/>
		<path class="st0" d="M391.03,354.69c-7.8,0-16.29,0.82-23.4,2.33l1.36,12.33c7.26-0.97,13.55-1.51,20.54-1.51
			c12.32,0,16.02,3.56,16.02,10.96v5.61h-19.99c-13.69,0-21.62,6.85-21.62,19.44c0,11.63,9.03,19.84,22.45,19.84
			c9.17,0,15.47-3,19.84-8.48v7.39h16.01v-43.39C422.23,362.63,410.6,354.69,391.03,354.69z M405.54,397.8
			c0,8.35-5.62,13.97-14.51,13.97c-6.84,0-10.4-2.6-10.4-8.08c0-6.02,3.7-8.35,10.4-8.35h14.51V397.8z"/>
		<path class="st0" d="M466.63,368.11c3.97,0,8.63,0.41,13.28,1.5l2.73-12.05c-5.47-2.06-11.21-2.87-17.38-2.87
			c-22.17,0-36.81,15.06-36.81,34.49c0,19.44,14.65,34.49,36.81,34.49c5.47,0,12.73-1.37,17.38-3.15l-2.73-12.18
			c-5.07,1.37-8.62,2.05-13.28,2.05c-14.51,0-21.49-8.76-21.49-21.21C445.14,376.73,452.12,368.11,466.63,368.11z"/>
		<path class="st0" d="M568.02,393.01c0,9.31-8.07,15.74-15.6,15.74c-8.35,0-11.91-4.92-11.91-13.14v-39.69h-2.24l0,0H504.7v-18.75
			H488v18.75v11.22v36.27c0,14.65,8.89,20.25,21.08,20.25c3.28,0,7.25-0.54,9.58-1.09l-1.51-12.32c-1.5,0.27-3.69,0.55-4.79,0.55
			c-4.38,0-7.66-1.51-7.66-8.49v-35.18h19.12v31.07c0,15.33,6.98,25.46,22.04,25.46c9.86,0,18.34-5.47,22.59-11.76v10.67h16.43
			v-66.66h-16.84V393.01z"/>
		<path class="st0" d="M624.08,382.88c-11.77-4.65-14.91-5.75-14.91-10.12c0-3.55,2.46-5.2,11.21-5.2c6.57,0,14.79,1.37,20.25,2.87
			l2.88-12.18c-7.26-2.46-16.97-3.56-23.42-3.56c-17.38,0-26.96,6.16-26.96,18.61c0,11.22,5.89,14.78,23.68,22.04
			c10.13,4.11,12.72,5.2,12.72,9.17c0,3.7-3,6.3-11.77,6.3c-6.85,0-15.33-1.92-23.41-4.79l-3.7,11.63
			c8.23,3.57,18.62,6.02,27.24,6.02c16.84,0,27.92-7.93,27.92-19.84C645.84,392.61,640.77,389.46,624.08,382.88z"/>
	</g>
	<g>
		<path class="st0" d="M650.48,415.6v-0.87h6.27v0.87h-2.62v6.97h-1.04v-6.97H650.48z"/>
		<path class="st0" d="M658.86,414.73l2.47,6.59l2.48-6.59h1.43v7.84h-0.99v-6.53h-0.03l-2.46,6.53h-0.88l-2.45-6.53h-0.03v6.53
			h-0.99v-7.84H658.86z"/>
	</g>
</g>
<polygon class="st1" points="311.92,307.04 275.3,270.45 275.3,270.45 193.25,188.41 193.25,307.04 127.53,307.04 193.25,372.77 
	258.8,307.04 258.8,307.04 "/>
<g>
	<polygon class="st2" points="193.25,372.77 193.25,307.04 185.82,307.04 	"/>
	<polygon class="st2" points="285.31,280.46 258.8,307.04 266.99,307.04 	"/>
</g>
<g>
	<path class="st3" d="M226.72,457.19c0-7.59,4.57-12.24,10.83-12.24c3.28,0,5.44,1.44,6.8,2.92l-1.66,1.87
		c-1.19-1.22-2.7-2.12-5.08-2.12c-4.75,0-7.77,3.63-7.77,9.5c0,5.94,2.77,9.65,7.81,9.65c1.69,0,3.31-0.5,4.25-1.37v-6.16h-5v-2.48
		h7.77v9.93c-1.55,1.58-4.14,2.74-7.31,2.74C231.14,469.43,226.72,464.9,226.72,457.19z"/>
	<path class="st3" d="M247.81,460.25c0-5.69,3.85-9.18,7.85-9.18c4.46,0,7.02,3.17,7.02,8.21c0,0.65-0.04,1.19-0.14,1.76h-11.77
		c0.25,3.6,2.45,5.98,5.76,5.98c1.69,0,3.17-0.47,4.39-1.3l1.04,1.91c-1.51,1.08-3.38,1.8-5.8,1.8
		C251.48,469.43,247.81,466.05,247.81,460.25z M260.01,458.74c0-3.46-1.62-5.29-4.28-5.29c-2.45,0-4.61,1.94-4.97,5.29H260.01z"/>
	<path class="st3" d="M266.06,451.51h2.45l0.25,3.17h0.11c1.22-2.2,3.02-3.6,4.97-3.6c0.79,0,1.33,0.11,1.87,0.36l-0.65,2.56
		c-0.5-0.14-0.9-0.22-1.58-0.22c-1.48,0-3.24,1.04-4.43,4V469h-2.99V451.51z"/>
	<path class="st3" d="M277.69,451.51h2.45l0.25,2.52h0.11c1.55-1.66,3.35-2.95,5.44-2.95c2.7,0,4.14,1.26,4.86,3.31
		c1.8-1.94,3.64-3.31,5.76-3.31c3.6,0,5.33,2.38,5.33,6.84V469h-2.99v-10.69c0-3.28-1.04-4.64-3.24-4.64
		c-1.37,0-2.77,0.86-4.39,2.66V469h-2.99v-10.69c0-3.28-1.01-4.64-3.24-4.64c-1.3,0-2.74,0.86-4.36,2.66V469h-2.99V451.51z"/>
	<path class="st3" d="M305.55,464.46c0-3.89,3.24-5.76,10.73-6.59c-0.04-2.2-0.76-4.32-3.6-4.32c-2.02,0-3.85,0.9-5.22,1.8
		l-1.15-2.02c1.62-1.08,4.07-2.27,6.88-2.27c4.25,0,6.08,2.84,6.08,7.16V469h-2.45l-0.29-2.09h-0.11c-1.66,1.4-3.56,2.52-5.76,2.52
		C307.75,469.43,305.55,467.63,305.55,464.46z M316.28,464.75V460c-5.9,0.68-7.81,2.02-7.81,4.28c0,1.94,1.33,2.7,3.02,2.7
		S314.59,466.23,316.28,464.75z"/>
	<path class="st3" d="M323.88,451.51h2.45l0.25,2.52h0.11c1.66-1.66,3.46-2.95,5.87-2.95c3.71,0,5.36,2.38,5.36,6.84V469h-2.99
		v-10.69c0-3.28-1.01-4.64-3.31-4.64c-1.76,0-3.02,0.9-4.75,2.66V469h-2.99V451.51z"/>
	<path class="st3" d="M340.91,476.16l0.65-2.34c0.43,0.14,0.86,0.22,1.3,0.22c1.94,0,3.2-1.55,3.92-3.71l0.4-1.3l-7.02-17.53h3.1
		l3.53,9.65c0.58,1.51,1.15,3.31,1.73,4.93h0.14c0.47-1.58,0.97-3.38,1.44-4.93l3.13-9.65h2.92l-6.59,18.93
		c-1.22,3.46-3.06,6.08-6.55,6.08C342.17,476.52,341.48,476.38,340.91,476.16z"/>
	<path class="st3" d="M363.62,460.25c0-5.69,3.85-9.18,7.85-9.18c4.46,0,7.02,3.17,7.02,8.21c0,0.65-0.04,1.19-0.14,1.76h-11.77
		c0.25,3.6,2.45,5.98,5.76,5.98c1.69,0,3.17-0.47,4.39-1.3l1.04,1.91c-1.51,1.08-3.38,1.8-5.8,1.8
		C367.29,469.43,363.62,466.05,363.62,460.25z M375.82,458.74c0-3.46-1.62-5.29-4.28-5.29c-2.45,0-4.61,1.94-4.97,5.29H375.82z"/>
	<path class="st3" d="M381.26,467.16c0-1.37,0.97-2.3,2.16-2.3s2.16,0.94,2.16,2.3c0,1.33-0.97,2.27-2.16,2.27
		S381.26,468.5,381.26,467.16z"/>
	<path class="st3" d="M384.68,445.39h3.2l3.67,12.74c0.79,2.77,1.4,5.04,2.27,7.78h0.14c0.86-2.74,1.44-5,2.27-7.78l3.92-12.74h3.09
		L395.59,469h-3.49L384.68,445.39z"/>
	<path class="st3" d="M402.36,467.16c0-1.37,0.97-2.3,2.16-2.3c1.19,0,2.16,0.94,2.16,2.3c0,1.33-0.97,2.27-2.16,2.27
		C403.33,469.43,402.36,468.5,402.36,467.16z"/>
</g>
<g>
</g>
<g>
</g>
<g>
</g>
<g>
</g>
<g>
</g>
<g>
</g>
</svg>